# xmcd
#
# Track frame offsets:
#       150
#       14012
#       26847
#       41445
#       54240
#       67482
#       81772
#       95585
#       107250
#       122410
#       135887
#       148455
#       163887
#       185415
#       196700
#       209955
#       224037
#       238940
#       251972
#       265495
#
# Disc length: 3725 seconds
#
# Revision: 1
# Processed by: cddbd v1.5.2PL0 Copyright (c) Steve Scherf et al.
# Submitted via: FreeDbEdit v0.1
#
DISCID=3d0e8b14
DTITLE=Charlie Parker - Essential Masters of Jazz
DYEAR=1900
DGENRE=Jazz
TTITLE0=Parker's Mood
TTITLE1=Ko-Ko
TTITLE2=Bird of Paradise
TTITLE3=Don't Blame Me
TTITLE4=Ah-Leu-Cha
TTITLE5=Cool Blues
TTITLE6=Relaxin' at Camarillo
TTITLE7=Donna Lee
TTITLE8=Lover Man
TTITLE9=Crazeology
TTITLE10=Chasing the Bird
TTITLE11=Embraceable You
TTITLE12=The Bird
TTITLE13=Barbados
TTITLE14=Yardbird Suite
TTITLE15=Klact-Oveeseds-Tene
TTITLE16=Now's the Time
TTITLE17=Bird's Nest
TTITLE18=Scrapple From the Apple
TTITLE19=A Night in Tunisia
EXTD=
EXTT0=
EXTT1=
EXTT2=
EXTT3=
EXTT4=
EXTT5=
EXTT6=
EXTT7=
EXTT8=
EXTT9=
EXTT10=
EXTT11=
EXTT12=
EXTT13=
EXTT14=
EXTT15=
EXTT16=
EXTT17=
EXTT18=
EXTT19=
PLAYORDER=
